<svg xmlns="http://www.w3.org/2000/svg" xmlns:xlink="http://www.w3.org/1999/xlink" width="500"
    zoomAndPan="magnify" viewBox="0 0 375 374.999991" height="500"
    preserveAspectRatio="xMidYMid meet" version="1.0">
    <defs>
        <clipPath id="e69505ccc5">
            <path
                d="M 187.5 0 C 83.945312 0 0 83.945312 0 187.5 C 0 291.054688 83.945312 375 187.5 375 C 291.054688 375 375 291.054688 375 187.5 C 375 83.945312 291.054688 0 187.5 0 Z M 187.5 0 "
                clip-rule="nonzero" />
        </clipPath>
    </defs>
    <g clip-path="url(#e69505ccc5)">
        <rect x="-37.5" width="450" fill="#000000" y="-37.499999" height="449.999989"
            fill-opacity="1" />
    </g>
    <path fill="#ffffff"
        d="M 229.277344 179.488281 C 220.757812 163.234375 211.757812 148.777344 190.464844 144.578125 C 162.148438 138.9375 137.914062 160.832031 132.394531 185.367188 C 131.796875 188.007812 129.15625 202.824219 131.617188 203.964844 C 133.234375 204.742188 179.90625 196.105469 184.285156 195.324219 C 198.324219 192.925781 214.160156 190.40625 228.015625 187.289062 C 234.136719 185.90625 232.09375 184.949219 229.277344 179.488281 Z M 194.484375 244.753906 C 189.503906 245.535156 184.226562 245.957031 179.367188 246.914062 C 192.5625 249.792969 216.4375 240.4375 200.960938 243.554688 C 198.800781 243.976562 196.703125 244.394531 194.484375 244.753906 Z M 247.453125 219.019531 C 225.738281 252.015625 186.625 264.792969 149.554688 247.335938 C 132.695312 239.417969 147.035156 247.933594 152.910156 250.453125 C 190.703125 266.710938 238.273438 249.015625 252.070312 211.640625 C 254.46875 205.222656 247.992188 218.179688 247.453125 219.019531 Z M 255.789062 180.929688 C 266.527344 175.769531 254.832031 171.332031 248.230469 173.550781 C 241.933594 175.589844 240.671875 174.390625 236.714844 168.929688 C 227.476562 156.152344 224.238281 148.175781 207.5 141.277344 C 171.386719 126.460938 135.9375 148.835938 129.335938 183.269531 C 126.816406 196.40625 134.617188 173.128906 135.035156 172.230469 C 146.132812 147.214844 174.988281 135.160156 201.863281 145.597656 C 226.335938 155.074219 224.777344 180.328125 241.394531 182.96875 C 246.433594 183.75 251.050781 182.667969 255.789062 180.929688 Z M 365.628906 161.734375 C 345.230469 172.710938 302.402344 178.347656 278.34375 183.507812 C 252.972656 189.027344 262.210938 202.222656 251.050781 221.058594 C 222.675781 268.929688 156.992188 273.25 123.636719 229.820312 C 112.421875 215.300781 111.820312 213.800781 90.945312 217.882812 C 88.425781 218.421875 52.851562 226.039062 55.550781 220.761719 C 56.632812 218.601562 53.992188 219.679688 51.59375 220.160156 C 51.414062 220.21875 4.144531 229.757812 22.140625 224.179688 C 36.65625 219.679688 72.769531 215.542969 81.527344 211.761719 C 86.507812 209.542969 49.195312 217.222656 73.429688 209.84375 C 78.949219 208.164062 97.722656 202.222656 100.78125 198.023438 C 100.542969 197.84375 75.109375 210.144531 72.46875 208.523438 C 72.589844 208.28125 82.488281 202.644531 84.105469 201.382812 C 107.320312 183.6875 100.722656 145.597656 142.773438 120.582031 C 174.386719 101.746094 216.078125 108.222656 240.855469 131.980469 C 252.609375 143.195312 258.308594 156.035156 268.449219 166.59375 C 281.765625 180.507812 370.847656 158.734375 365.628906 161.734375 Z M 227.296875 194.605469 C 213.980469 196.824219 200.960938 200.003906 187.226562 202.222656 C 180.804688 203.246094 133.535156 209.84375 131.496094 213.140625 C 129.035156 217.042969 143.554688 225.078125 146.671875 226.398438 C 176.007812 238.816406 214.398438 235.699219 231.433594 206.304688 C 234.613281 200.90625 238.875 193.167969 228.976562 194.425781 Z M 129.335938 142.65625 C 119.4375 148.777344 107.621094 175.050781 107.382812 185.429688 C 107.261719 190.527344 115.359375 165.753906 116.199219 163.773438 C 118.898438 157.234375 129.035156 144.996094 129.695312 142.65625 Z M 199.222656 121.421875 C 193.285156 118.121094 171.808594 120.523438 164.789062 122.203125 C 156.03125 124.359375 138.636719 132.460938 159.871094 125.921875 C 176.667969 120.703125 176.96875 121.960938 194.0625 121.960938 C 194.722656 121.960938 199.042969 122.140625 199.222656 121.421875 Z M 199.222656 121.421875 "
        fill-opacity="1" fill-rule="evenodd" />
</svg>